<mxfile host="app.diagrams.net" modified="2023-08-27T14:47:18.397Z" agent="Mozilla/5.0 (Windows NT 10.0; Win64; x64) AppleWebKit/537.36 (KHTML, like Gecko) Chrome/116.0.0.0 Safari/537.36 Edg/116.0.1938.54" version="21.6.9" etag="eRNZ2e96iA0PM0WExDgh" type="github">
  <diagram name="Trang-1" id="7ALfEgBhx7M4XpB4MpOS">
    <mxGraphModel>
      <root>
        <mxCell id="0" />
        <mxCell id="1" parent="0" />
      </root>
    </mxGraphModel>
  </diagram>
</mxfile>
